<svg xmlns="http://www.w3.org/2000/svg" version="1.1" xmlns:xlink="http://www.w3.org/1999/xlink" width="1920" height="1080" preserveAspectRatio="none" viewBox="0 0 1920 1080">
    <g mask="url(&quot;#SvgjsMask1052&quot;)" fill="none">
        <rect width="1920" height="1080" x="0" y="0" fill="rgba(17, 24, 39, 1)"></rect>
        <path d="M0,666.462C129.354,657.201,259.466,621.346,362.394,535.716C463.251,451.723,515.73,325.271,564.494,201.354C612.904,78.417,664.547,-47.048,636.339,-176.736C608.493,-304.661,506.117,-401.284,401.72,-485.284C304.575,-563.057,191.507,-625.483,67.367,-642.998C-56.25,-660.446,-183.4,-650.391,-297.329,-598.824C-415.476,-545.391,-509.825,-450.971,-571.147,-337.397C-633.472,-221.935,-644.507,-84.413,-633.391,45.395C-622.386,174.031,-600.487,306.364,-512.902,401.395C-424.524,497.323,-286.927,527.571,-169.564,571.81C-113.712,593.367,-57.432,670.471,0,666.462" fill="#0c111b"></path>
        <path d="M1920 1646.779C2025.862 1640.453 2135.016 1627.356 2226.183 1572.0720000000001 2315.472 1517.902 2373.684 1428.203 2431.287 1341.094 2489.574 1252.907 2543.575 1160.482 2543.1 1056.355 2542.621 951.474 2482.471 859.006 2425.471 770.843 2370.84 686.048 2307.692 604.843 2223.275 551.0360000000001 2137.397 496.255 2036.85 467.59000000000003 1936.776 459.21500000000003 1827.323 449.98600000000005 1714.692 461.59000000000003 1621.275 516.862 1527.76 572.18 1465.472 666.287 1408.575 757.843 1345.834 857.843 1276.93 957.843 1277.219 1075.209 1277.508 1192.575 1352.219 1292.575 1415.074 1392.575 1473.219 1485.209 1542.93 1572.575 1636.074 1622.575 1729.219 1672.575 1824.93 1652.575 1920 1646.779" fill="#1a2235"></path>
    </g>
    <defs>
        <mask id="SvgjsMask1052">
            <rect width="1920" height="1080" fill="#ffffff"></rect>
        </mask>
    </defs>
</svg>

